<?xml version="1.0" encoding="UTF-8"?>
<svg width="72px" height="87px" viewBox="0 0 72 87" version="1.1" xmlns="http://www.w3.org/2000/svg" xmlns:xlink="http://www.w3.org/1999/xlink">
    <!-- Generator: Sketch 48.2 (47327) - http://www.bohemiancoding.com/sketch -->
    <title>arrow</title>
    <desc>Created with Sketch.</desc>
    <defs></defs>
    <g id="Design" stroke="none" stroke-width="1" fill="none" fill-rule="evenodd" transform="translate(-479.000000, -3711.000000)">
        <path d="M553.165822,3747.79669 L553.300066,3747.82588 L495.752794,3747.82588 L513.843554,3729.80467 C514.729424,3728.92484 515.215359,3727.73297 515.215359,3726.48202 C515.215359,3725.23108 514.729424,3724.04755 513.843554,3723.16564 L511.028628,3720.36631 C510.143458,3719.48648 508.963929,3719 507.706092,3719 C506.447556,3719 505.267329,3719.483 504.382158,3720.36283 L473.371124,3751.18396 C472.482458,3752.06727 471.996523,3753.24385 472.000019,3754.49548 C471.996523,3755.75407 472.482458,3756.93135 473.371124,3757.81326 L504.382158,3788.63717 C505.267329,3789.5163 506.446857,3790 507.706092,3790 C508.963929,3790 510.143458,3789.51561 511.028628,3788.63717 L513.843554,3785.83784 C514.729424,3784.9594 515.215359,3783.78629 515.215359,3782.53535 C515.215359,3781.2851 514.729424,3780.17385 513.843554,3779.29472 L495.548631,3761.17273 L553.230147,3761.17273 C555.822033,3761.17273 558,3758.95231 558,3756.37746 L558,3752.41822 C558,3749.84337 555.757708,3747.79669 553.165822,3747.79669 Z" id="arrow" fill="#FDFDFD" fill-rule="nonzero" transform="translate(515.000000, 3754.500000) rotate(-90.000000) translate(-515.000000, -3754.500000) "></path>
    </g>
</svg>